<svg preserveAspectRatio="none" overflow="visible" style="display: block;" width="15.1875" height="14.633" viewBox="0 0 15.1875 14.633" fill="none" xmlns="http://www.w3.org/2000/svg">
<path id="vector-element" d="M15.1875 7.03924C15.1875 9.05323 14.3874 10.9847 12.9633 12.4088C11.5392 13.8329 9.60774 14.633 7.59375 14.633C5.57976 14.633 3.64826 13.8329 2.22416 12.4088C0.800054 10.9847 0 9.05323 0 7.03924C0 4.04955 1.73883 1.32002 4.42969 0.0853314C4.5308 0.0360372 4.64074 0.00745828 4.75306 0.00127553C4.86538 -0.00490723 4.9778 0.011431 5.08371 0.0493292C5.18962 0.0872274 5.28688 0.14592 5.36978 0.221957C5.45267 0.297993 5.51953 0.389838 5.56641 0.492089C5.61329 0.59434 5.63926 0.704933 5.64277 0.817365C5.64629 0.929797 5.62729 1.0418 5.58689 1.14678C5.54649 1.25176 5.48551 1.3476 5.40753 1.42867C5.32955 1.50974 5.23615 1.5744 5.13281 1.61885C3.04031 2.57932 1.6875 4.70697 1.6875 7.03924C1.6875 8.60567 2.30976 10.108 3.4174 11.2156C4.52504 12.3232 6.02732 12.9455 7.59375 12.9455C9.16018 12.9455 10.6625 12.3232 11.7701 11.2156C12.8777 10.108 13.5 8.60567 13.5 7.03924C13.5 4.70697 12.1472 2.57932 10.0547 1.61885C9.95135 1.5744 9.85795 1.50974 9.77997 1.42867C9.70199 1.3476 9.641 1.25176 9.60061 1.14678C9.56021 1.0418 9.54121 0.929797 9.54473 0.817365C9.54824 0.704933 9.57421 0.59434 9.62109 0.492089C9.66797 0.389838 9.73483 0.297993 9.81772 0.221957C9.90062 0.14592 9.99788 0.0872274 10.1038 0.0493292C10.2097 0.011431 10.3221 -0.00490723 10.4344 0.00127553C10.5468 0.00745828 10.6567 0.0360372 10.7578 0.0853314C13.4487 1.32002 15.1875 4.04955 15.1875 7.03924Z" fill="#878B94"/>
</svg>
